<?xml version="1.0" encoding="UTF-8" standalone="no"?>
<svg xmlns:dc="http://purl.org/dc/elements/1.1/" xmlns:cc="http://creativecommons.org/ns#"
    xmlns:rdf="http://www.w3.org/1999/02/22-rdf-syntax-ns#" xmlns="http://www.w3.org/2000/svg"
    xmlns:sodipodi="http://sodipodi.sourceforge.net/DTD/sodipodi-0.dtd"
    xmlns:inkscape="http://www.inkscape.org/namespaces/inkscape" sodipodi:docname="logo.svg"
    inkscape:version="1.0beta2 (2b71d25, 2019-12-03)" id="svg8" version="1.1"
    viewBox="0 0 135.46666 135.46666" height="512" width="512">
  <defs id="defs2" />
  <sodipodi:namedview inkscape:window-maximized="0" inkscape:window-y="23" inkscape:window-x="0"
      inkscape:window-height="855" inkscape:window-width="1440" units="px" showgrid="false"
      inkscape:document-rotation="0" inkscape:current-layer="layer1" inkscape:document-units="mm"
      inkscape:cy="883.10977" inkscape:cx="445.93539" inkscape:zoom="0.2956276"
      inkscape:pageshadow="2" inkscape:pageopacity="0.0" borderopacity="1.0" bordercolor="#666666"
      pagecolor="#ffffff" id="base" />
  <metadata id="metadata5">
    <rdf:RDF>
      <cc:Work rdf:about="">
        <dc:format>image/svg+xml</dc:format>
        <dc:type rdf:resource="http://purl.org/dc/dcmitype/StillImage" />
        <dc:title></dc:title>
      </cc:Work>
    </rdf:RDF>
  </metadata>
  <g id="layer1" inkscape:groupmode="layer" inkscape:label="Layer 1">
    <g style="font-style:normal;font-variant:normal;font-weight:normal;font-stretch:normal;font-size:102.31699999999999307px;line-height:1.25;font-family:'Vintage Party';-inkscape-font-specification:'Vintage Party Normal';font-variant-ligatures:normal;font-variant-caps:normal;font-variant-numeric:normal;font-variant-east-asian:normal;stroke-width:2.55796;fill:#ff9a5a;fill-opacity:1"
        id="text835" transform="matrix(0.93928808,0,0,0.93371184,13.009888,5.6503817)"
        aria-label="F">
      <path inkscape:connector-curvature="0" id="path837"
          style="font-style:normal;font-variant:normal;font-weight:normal;font-stretch:normal;font-size:102.31699999999999307px;font-family:'Vintage Party';-inkscape-font-specification:'Vintage Party Normal';font-variant-ligatures:normal;font-variant-caps:normal;font-variant-numeric:normal;font-variant-east-asian:normal;stroke-width:2.55796;fill:#ff9a5a;fill-opacity:1"
          d="m 82.597385,37.494777 q -5.11585,9.720115 -9.822432,26.090836 8.083043,1.125487 11.766455,-3.990364 -0.409268,7.571459 -4.194997,10.231701 -3.683412,2.660242 -9.924749,2.148657 -6.13902,21.179619 -11.050236,31.411323 -2.557925,5.4228 -6.241337,9.51548 -3.581095,4.19499 -7.571458,6.54829 -3.888046,2.35329 -8.287677,3.58109 -4.399631,1.2278 -8.696945,0.92085 -4.297314,-0.20463 -8.492311,-1.33012 -4.092681,-1.12548 -7.673776,-3.47878 -3.5810949,-2.25097 -6.4459709,-5.21816 -2.762559,-2.9672 -4.6042647,-6.85524 -1.73938903,-3.88805 -2.14865703,-8.185362 -0.40926797,-3.990363 0.818536,-7.878409 1.22780403,-3.990363 3.47877773,-7.059873 2.353291,-3.06951 5.422801,-5.11585 3.1718269,-2.148657 6.3436539,-2.864876 3.171828,-0.716219 6.343655,0.409268 3.171827,1.125487 5.422801,4.194997 -8.492311,2.967193 -9.413164,9.617798 -0.71622,5.525118 3.888046,9.515481 5.422801,4.808896 12.891942,2.353296 1.739389,-0.61391 3.478778,-1.63708 4.501948,-2.660239 8.696945,-10.436331 4.194997,-7.878409 9.413164,-20.974985 -9.310847,-2.353291 -13.30121,-1.534755 1.841706,-3.888046 4.501948,-5.729753 2.762559,-1.944023 5.729752,-1.944023 2.967193,0 6.548288,0.613902 7.366824,-18.519377 11.971089,-25.57925 -1.432438,-0.306951 -4.911216,-1.227804 -3.478778,-1.02317 -5.422801,-1.432438 Q 59.269109,31.662708 56.301916,30.946489 53.43704,30.23027 50.879115,29.718685 48.32119,29.2071 45.865582,28.900149 q -6.036703,-0.511585 -11.357187,1.125487 -5.218167,1.637072 -8.083043,4.706582 -2.762559,2.967193 -3.785729,6.548288 -0.920853,3.581095 1.432438,7.366824 2.455608,3.785729 7.878409,6.445971 -7.571458,2.557925 -14.222063,0.102317 -6.548289,-2.557925 -9.8224329,-8.287677 -3.171827,-5.832069 -3.888046,-12.482674 -0.716219,-6.752922 3.274144,-13.30121 4.0926799,-6.548288 12.0734069,-9.924749 4.706582,-1.9440232 10.538651,-2.1486572 5.832069,-0.306951 10.845602,0.511585 5.11585,0.8185362 11.766455,2.9671932 6.650605,2.148657 10.947919,3.990363 4.399631,1.841706 10.947919,4.706582 6.548288,2.864876 9.310847,3.990363 l -3.171827,-2.660242 q 3.06951,-3.888046 7.469141,-6.445971 4.501952,-2.660242 9.003892,-3.478778 4.604272,-0.818536 8.799272,-0.306951 4.29731,0.409268 7.36682,2.864876 3.06951,2.353291 3.99036,6.241337 0.81854,3.581095 -1.2278,7.469141 -2.04634,3.888046 -6.75292,6.752922 -4.70658,2.864876 -10.640972,3.171827 -7.162191,0.409268 -15.961453,-1.330121 z m 6.445971,-9.924749 q 7.059872,3.06951 15.142914,2.557925 7.87841,-0.511585 7.57146,-4.604265 0,-0.920853 -0.51158,-1.841706 -0.81854,-1.841706 -3.27415,-2.762559 -2.4556,-0.920853 -5.62743,-0.818536 -3.069512,0.102317 -6.752922,2.04634 -3.683416,1.944023 -6.548292,5.422801 z" />
    </g>
  </g>
</svg>
