<?xml version="1.0" encoding="UTF-8" standalone="no"?>
<svg xmlns:dc="http://purl.org/dc/elements/1.1/" xmlns:cc="http://creativecommons.org/ns#"
    xmlns:rdf="http://www.w3.org/1999/02/22-rdf-syntax-ns#" xmlns="http://www.w3.org/2000/svg"
    xmlns:sodipodi="http://sodipodi.sourceforge.net/DTD/sodipodi-0.dtd"
    xmlns:inkscape="http://www.inkscape.org/namespaces/inkscape" width="138" height="56"
    viewBox="0 0 36.512502 14.816667" version="1.1" id="svg902"
    inkscape:version="1.0beta2 (2b71d25, 2019-12-03)" sodipodi:docname="logo-full-white.svg">
  <defs id="defs896" />
  <sodipodi:namedview id="base" pagecolor="#ffffff" bordercolor="#666666" borderopacity="1.0"
      inkscape:pageopacity="0.0" inkscape:pageshadow="2" inkscape:zoom="2.5948187"
      inkscape:cx="23.33172" inkscape:cy="36.365196" inkscape:document-units="px"
      inkscape:current-layer="layer1" inkscape:document-rotation="0" showgrid="false"
      fit-margin-top="8" fit-margin-left="8" fit-margin-right="8" fit-margin-bottom="8" units="px"
      inkscape:window-width="1440" inkscape:window-height="855" inkscape:window-x="0"
      inkscape:window-y="23" inkscape:window-maximized="0" />
  <metadata id="metadata899">
    <rdf:RDF>
      <cc:Work rdf:about="">
        <dc:format>image/svg+xml</dc:format>
        <dc:type rdf:resource="http://purl.org/dc/dcmitype/StillImage" />
        <dc:title></dc:title>
      </cc:Work>
    </rdf:RDF>
  </metadata>
  <g inkscape:label="Layer 1" inkscape:groupmode="layer" id="layer1"
      transform="translate(-55.346295,-80.169183)">
    <g aria-label="Fotomator" id="text1467"
        style="font-weight:bold;font-size:10.58329999999999949px;line-height:1.25;font-family:'Roboto Condensed';-inkscape-font-specification:'Roboto Condensed, Bold';stroke-width:0.264583;fill:#ffffff"
        transform="matrix(0.88951964,0,0,0.8893511,6.3485286,9.1048385)">
      <path
          d="m 66.098933,85.236674 q -0.529165,1.005414 -1.015997,2.698742 0.836081,0.116416 1.21708,-0.412749 -0.04233,0.783164 -0.433915,1.05833 -0.380999,0.275166 -1.026581,0.222249 -0.634998,2.190743 -1.142996,3.249073 -0.264582,0.560915 -0.645581,0.984247 -0.370416,0.433915 -0.783164,0.677331 -0.402166,0.243416 -0.857248,0.370416 -0.455082,0.126999 -0.89958,0.09525 -0.444499,-0.02117 -0.878414,-0.137582 -0.423332,-0.116417 -0.793747,-0.359833 -0.370416,-0.232832 -0.666748,-0.539748 -0.285749,-0.306916 -0.476249,-0.709081 -0.179916,-0.402165 -0.222249,-0.846664 -0.04233,-0.412749 0.08467,-0.814914 0.127,-0.412749 0.359833,-0.730248 0.243415,-0.317499 0.560914,-0.529165 0.328083,-0.222249 0.656165,-0.296332 0.328082,-0.07408 0.656165,0.04233 0.328082,0.116416 0.560914,0.433915 -0.878413,0.306916 -0.973663,0.994831 -0.07408,0.571498 0.402165,0.984246 0.560915,0.497416 1.333496,0.243416 0.179916,-0.0635 0.359832,-0.169332 0.465665,-0.275166 0.899581,-1.079497 0.433915,-0.814914 0.973663,-2.169576 -0.96308,-0.243416 -1.375829,-0.15875 0.1905,-0.402165 0.465665,-0.592665 0.28575,-0.201082 0.592665,-0.201082 0.306916,0 0.677331,0.0635 0.761998,-1.915577 1.238246,-2.645825 -0.148166,-0.03175 -0.507998,-0.126999 -0.359832,-0.105833 -0.560915,-0.148166 -0.190499,-0.05292 -0.497415,-0.127 -0.296332,-0.07408 -0.560915,-0.127 -0.264582,-0.05292 -0.518581,-0.08467 -0.624415,-0.05292 -1.174747,0.116416 -0.539748,0.169333 -0.83608,0.486832 -0.285749,0.306916 -0.391582,0.677331 -0.09525,0.370416 0.148166,0.761998 0.253999,0.391582 0.814914,0.666748 -0.783164,0.264582 -1.471079,0.01058 -0.677331,-0.264582 -1.015997,-0.857247 -0.328082,-0.603248 -0.402165,-1.291163 -0.07408,-0.698498 0.338666,-1.375829 0.423332,-0.677331 1.248829,-1.02658 0.486832,-0.201082 1.09008,-0.222249 0.603248,-0.03175 1.12183,0.05292 0.529165,0.08467 1.217079,0.306916 0.687915,0.222249 1.132413,0.412749 0.455082,0.190499 1.132413,0.486832 0.677331,0.296332 0.96308,0.412748 l -0.328082,-0.275166 q 0.317499,-0.402165 0.772581,-0.666747 0.465665,-0.275166 0.93133,-0.359833 0.476249,-0.08467 0.910164,-0.03175 0.444499,0.04233 0.761998,0.296332 0.317499,0.243416 0.412748,0.645581 0.08467,0.370416 -0.126999,0.772581 -0.211666,0.402165 -0.698498,0.698498 -0.486832,0.296332 -1.100663,0.328082 -0.740831,0.04233 -1.650995,-0.137583 z m 0.666748,-1.02658 q 0.730248,0.317499 1.566328,0.264583 0.814914,-0.05292 0.783165,-0.476249 0,-0.09525 -0.05292,-0.190499 -0.08467,-0.1905 -0.338666,-0.285749 -0.253999,-0.09525 -0.582081,-0.08467 -0.317499,0.01058 -0.698498,0.211666 -0.380999,0.201083 -0.677331,0.560915 z"
          style="font-style:normal;font-variant:normal;font-weight:normal;font-stretch:normal;font-size:10.58329999999999949px;font-family:'Vintage Party';-inkscape-font-specification:'Vintage Party Normal';font-variant-ligatures:normal;font-variant-caps:normal;font-variant-numeric:normal;font-variant-east-asian:normal;stroke-width:0.264583;fill:#ffffff"
          id="path1469" inkscape:connector-curvature="0" />
      <path
          d="m 68.574267,87.617917 q 0.232833,-0.07408 0.391582,0.08467 0.169333,0.148166 0.22225,0.402165 0.05292,0.254 0.08467,0.529165 0.03175,0.264583 0,0.423332 -0.05292,0.444499 -0.222249,0.910164 0.105833,0.03175 0.243416,-0.02117 0.148166,-0.05292 0.264582,-0.169333 0.116416,-0.127 0.148166,-0.285749 0.01058,-0.07408 0.09525,-0.433916 0.02117,-0.05292 0.03175,-0.08467 0.01058,-0.03175 0.01058,-0.0635 0.01058,-0.03175 0.03175,-0.05292 0.02117,-0.02117 0.02117,-0.03175 0.01058,-0.02117 0.04233,-0.02117 0.03175,-0.01058 0.04233,-0.01058 0.02117,-0.01058 0.07408,-0.01058 0.05292,-0.01058 0.07408,-0.01058 0.03175,0 0.105833,0.01058 0.07408,0 0.116417,0 -0.03175,0.158749 -0.07408,0.349249 -0.04233,0.179916 -0.105833,0.412748 -0.127,0.539748 -0.603249,0.825498 -0.465665,0.285749 -0.93133,-0.04233 0.0635,0.116417 0.148166,0.1905 -0.275165,0.465665 -0.656164,0.751414 -0.380999,0.285749 -0.825498,0.285749 -0.529165,0 -0.793747,-0.402165 -0.253999,-0.412749 -0.232833,-0.99483 0.01058,-0.592665 0.253999,-1.195913 0.296333,-0.761998 0.920748,-1.21708 0.634998,-0.455082 1.121829,-0.126999 z m -0.190499,2.444742 q -0.275166,-0.370416 -0.328082,-0.825497 -0.03175,-0.264583 0.01058,-0.529165 -0.243416,0.550331 -0.296332,1.174746 -0.05292,0.624414 0.179916,0.645581 0.190499,0 0.433915,-0.465665 z m 0.222249,-0.550332 z"
          style="font-style:normal;font-variant:normal;font-weight:normal;font-stretch:normal;font-size:10.58329999999999949px;font-family:'Vintage Party';-inkscape-font-specification:'Vintage Party Normal';font-variant-ligatures:normal;font-variant-caps:normal;font-variant-numeric:normal;font-variant-east-asian:normal;stroke-width:0.264583;fill:#ffffff"
          id="path1471" inkscape:connector-curvature="0" />
      <path
          d="m 69.553719,90.179075 0.349248,-1.534578 q 0.169333,-0.751415 0.370416,-1.555745 h -0.507998 q 0.02117,-0.05292 0.04233,-0.15875 0.05292,-0.222249 0.08467,-0.285749 0.03175,-0.07408 0.105833,-0.105833 0.07408,-0.03175 0.264583,-0.03175 h 0.158749 q 0.328082,-1.195913 0.592665,-1.841494 0.179916,-0.412749 0.423332,-0.656165 0.253999,-0.243415 0.603248,-0.285749 0.359832,-0.05292 0.783164,0.211666 -0.296332,0.243416 -0.497415,0.730248 -0.275166,0.666748 -0.592665,1.841494 h 0.571499 q -0.01058,0.0635 -0.03175,0.15875 -0.0635,0.306915 -0.127,0.370415 -0.0635,0.05292 -0.338666,0.05292 h -0.529165 l 0.275166,0.105833 q -0.158749,0.634998 -0.624414,2.709324 l -0.03175,0.15875 q -0.137583,0.666748 0.08467,0.645581 0.179916,-0.02117 0.359832,-0.433915 0.0635,-0.137583 0.105833,-0.296333 0.0635,-0.306915 0.211666,-0.920747 0.04233,-0.211666 0.105833,-0.243415 0.0635,-0.04233 0.306916,-0.04233 0.08467,0.01058 0.137583,0.01058 -0.116416,0.486831 -0.296333,1.248829 -0.253999,1.100663 -1.015996,1.386412 -0.571499,0.22225 -1.02658,-0.137583 -0.486832,-0.391582 -0.317499,-1.100663 z"
          style="font-style:normal;font-variant:normal;font-weight:normal;font-stretch:normal;font-size:10.58329999999999949px;font-family:'Vintage Party';-inkscape-font-specification:'Vintage Party Normal';font-variant-ligatures:normal;font-variant-caps:normal;font-variant-numeric:normal;font-variant-east-asian:normal;stroke-width:0.264583;fill:#ffffff"
          id="path1473" inkscape:connector-curvature="0" />
      <path
          d="m 73.700553,87.617917 q 0.232832,-0.07408 0.391582,0.08467 0.169333,0.148166 0.222249,0.402165 0.05292,0.254 0.08467,0.529165 0.03175,0.264583 0,0.423332 -0.05292,0.444499 -0.22225,0.910164 0.105833,0.03175 0.243416,-0.02117 0.148166,-0.05292 0.264583,-0.169333 0.116416,-0.127 0.148166,-0.285749 0.01058,-0.07408 0.09525,-0.433916 0.02117,-0.05292 0.03175,-0.08467 0.01058,-0.03175 0.01058,-0.0635 0.01058,-0.03175 0.03175,-0.05292 0.02117,-0.02117 0.02117,-0.03175 0.01058,-0.02117 0.04233,-0.02117 0.03175,-0.01058 0.04233,-0.01058 0.02117,-0.01058 0.07408,-0.01058 0.05292,-0.01058 0.07408,-0.01058 0.03175,0 0.105833,0.01058 0.07408,0 0.116416,0 -0.03175,0.158749 -0.07408,0.349249 -0.04233,0.179916 -0.105833,0.412748 -0.126999,0.539748 -0.603248,0.825498 -0.465665,0.285749 -0.93133,-0.04233 0.0635,0.116417 0.148166,0.1905 -0.275166,0.465665 -0.656165,0.751414 -0.380999,0.285749 -0.825497,0.285749 -0.529165,0 -0.793748,-0.402165 -0.253999,-0.412749 -0.232832,-0.99483 0.01058,-0.592665 0.253999,-1.195913 0.296332,-0.761998 0.920747,-1.21708 0.634998,-0.455082 1.12183,-0.126999 z m -0.1905,2.444742 q -0.275165,-0.370416 -0.328082,-0.825497 -0.03175,-0.264583 0.01058,-0.529165 -0.243415,0.550331 -0.296332,1.174746 -0.05292,0.624414 0.179916,0.645581 0.1905,0 0.433915,-0.465665 z m 0.22225,-0.550332 z"
          style="font-style:normal;font-variant:normal;font-weight:normal;font-stretch:normal;font-size:10.58329999999999949px;font-family:'Vintage Party';-inkscape-font-specification:'Vintage Party Normal';font-variant-ligatures:normal;font-variant-caps:normal;font-variant-numeric:normal;font-variant-east-asian:normal;stroke-width:0.264583;fill:#ffffff"
          id="path1475" inkscape:connector-curvature="0" />
      <path
          d="m 76.256917,88.972579 -0.560915,2.497659 q -0.634998,0 -0.920747,-0.22225 -0.285749,-0.232832 -0.148166,-0.83608 0.455081,-2.08491 0.476248,-2.137827 0.09525,-0.433915 0.306916,-0.634998 0.222249,-0.201082 0.507998,-0.179916 0.296333,0.01058 0.656165,0.127 l -0.01058,0.08467 q 0.465666,-0.306916 0.963081,-0.201083 0.497415,0.09525 0.719664,0.507999 0.296332,-0.359832 0.698498,-0.476249 0.402165,-0.116416 0.730248,0 0.328082,0.105833 0.529165,0.412749 0.211666,0.306916 0.148166,0.719664 -0.03175,0.179917 -0.08467,0.402166 -0.04233,0.211666 -0.116416,0.486832 -0.0635,0.264582 -0.09525,0.391582 -0.179916,0.772581 0.04233,0.761997 0.179916,0 0.359832,-0.391582 0.07408,-0.158749 0.116416,-0.338665 0.04233,-0.148167 0.105833,-0.455082 0.07408,-0.306916 0.105833,-0.455082 0.01058,-0.05292 0.02117,-0.08467 0.01058,-0.04233 0.02117,-0.07408 0.01058,-0.03175 0.02117,-0.04233 0.02117,-0.02117 0.03175,-0.03175 0.01058,-0.02117 0.04233,-0.03175 0.03175,-0.01058 0.04233,-0.01058 0.02117,-0.01058 0.0635,-0.01058 0.05292,0 0.08467,0 0.03175,0 0.105833,0 0.07408,0 0.116417,0 -0.22225,0.96308 -0.28575,1.248829 -0.264582,1.111247 -1.015996,1.396996 -0.582082,0.222249 -1.02658,-0.137583 -0.497415,-0.402166 -0.328083,-1.100663 0.03175,-0.116417 0.116417,-0.455082 0.08467,-0.349249 0.137583,-0.592665 0.05292,-0.253999 0.08467,-0.465665 0.05292,-0.433916 -0.169333,-0.412749 -0.222249,0.01058 -0.444498,0.391582 -0.08467,0.15875 -0.127,0.317499 -0.105833,0.497415 -0.338666,1.460495 -0.222249,0.952497 -0.253999,1.068914 -0.211666,0 -0.391582,-0.02117 -0.169333,-0.03175 -0.296332,-0.0635 -0.116417,-0.04233 -0.201083,-0.116416 -0.07408,-0.08467 -0.127,-0.148166 -0.05292,-0.0635 -0.0635,-0.1905 -0.01058,-0.126999 -0.02117,-0.211666 0,-0.08467 0.03175,-0.253999 0.03175,-0.179916 0.05292,-0.275166 0.02117,-0.09525 0.0635,-0.296332 0.02117,-0.07408 0.03175,-0.116416 0.201083,-0.836081 0.243416,-1.132413 0.05292,-0.433916 -0.169333,-0.412749 -0.222249,0.01058 -0.444498,0.391582 -0.09525,0.179916 -0.137583,0.349249 z"
          style="font-style:normal;font-variant:normal;font-weight:normal;font-stretch:normal;font-size:10.58329999999999949px;font-family:'Vintage Party';-inkscape-font-specification:'Vintage Party Normal';font-variant-ligatures:normal;font-variant-caps:normal;font-variant-numeric:normal;font-variant-east-asian:normal;stroke-width:0.264583;fill:#ffffff"
          id="path1477" inkscape:connector-curvature="0" />
      <path
          d="m 84.794331,89.036079 q 0.01058,-0.05292 0.02117,-0.08467 0.01058,-0.04233 0.02117,-0.07408 0.01058,-0.03175 0.02117,-0.04233 0.02117,-0.02117 0.03175,-0.04233 0.01058,-0.02117 0.04233,-0.02117 0.03175,-0.01058 0.04233,-0.01058 0.02117,-0.01058 0.0635,-0.01058 0.05292,0 0.07408,0 0.03175,0 0.105833,0 0.07408,0 0.126999,0 -0.116416,0.465665 -0.296332,1.248829 -0.127,0.518582 -0.380999,0.878414 -0.243416,0.349249 -0.539748,0.476248 -0.285749,0.127 -0.582082,0.116417 -0.285749,-0.02117 -0.518581,-0.1905 -0.22225,-0.179916 -0.317499,-0.455082 -0.529165,0.613832 -1.164163,0.613832 -0.761998,0 -0.941914,-0.825498 -0.179916,-0.825497 0.264582,-1.820327 0.455082,-0.984247 1.18533,-1.238246 0.211666,-0.07408 0.412749,-0.07408 0.518581,0 0.783164,0.412748 0.179916,-0.391582 0.539748,-0.455081 0.370416,-0.0635 0.814914,0.126999 -0.07408,0.338666 -0.264582,1.12183 -0.179916,0.783164 -0.285749,1.227663 -0.179916,0.772581 0.05292,0.761997 0.169333,-0.01058 0.359832,-0.391582 0.07408,-0.158749 0.116417,-0.338665 0.0635,-0.317499 0.211666,-0.910164 z m -2.624659,1.428745 q 0.254,0 0.550332,-0.761997 0.338665,-0.857248 0.232832,-1.312329 -0.05292,-0.179917 -0.190499,-0.1905 -0.328082,0 -0.592665,0.836081 -0.264582,0.814914 -0.158749,1.259412 0.04233,0.169333 0.158749,0.169333 z"
          style="font-style:normal;font-variant:normal;font-weight:normal;font-stretch:normal;font-size:10.58329999999999949px;font-family:'Vintage Party';-inkscape-font-specification:'Vintage Party Normal';font-variant-ligatures:normal;font-variant-caps:normal;font-variant-numeric:normal;font-variant-east-asian:normal;stroke-width:0.264583;fill:#ffffff"
          id="path1479" inkscape:connector-curvature="0" />
      <path
          d="m 84.539836,90.179075 0.349249,-1.534578 q 0.169333,-0.751415 0.370415,-1.555745 h -0.507998 q 0.02117,-0.05292 0.04233,-0.15875 0.05292,-0.222249 0.08467,-0.285749 0.03175,-0.07408 0.105833,-0.105833 0.07408,-0.03175 0.264582,-0.03175 h 0.15875 q 0.328082,-1.195913 0.592664,-1.841494 0.179916,-0.412749 0.423332,-0.656165 0.253999,-0.243415 0.603248,-0.285749 0.359833,-0.05292 0.783165,0.211666 -0.296333,0.243416 -0.497416,0.730248 -0.275165,0.666748 -0.592664,1.841494 h 0.571498 q -0.01058,0.0635 -0.03175,0.15875 -0.0635,0.306915 -0.127,0.370415 -0.0635,0.05292 -0.338665,0.05292 h -0.529165 l 0.275166,0.105833 q -0.15875,0.634998 -0.624415,2.709324 l -0.03175,0.15875 q -0.137583,0.666748 0.08467,0.645581 0.179917,-0.02117 0.359833,-0.433915 0.0635,-0.137583 0.105833,-0.296333 0.0635,-0.306915 0.211666,-0.920747 0.04233,-0.211666 0.105833,-0.243415 0.0635,-0.04233 0.306915,-0.04233 0.08467,0.01058 0.137583,0.01058 -0.116416,0.486831 -0.296332,1.248829 -0.253999,1.100663 -1.015997,1.386412 -0.571498,0.22225 -1.02658,-0.137583 -0.486832,-0.391582 -0.317499,-1.100663 z"
          style="font-style:normal;font-variant:normal;font-weight:normal;font-stretch:normal;font-size:10.58329999999999949px;font-family:'Vintage Party';-inkscape-font-specification:'Vintage Party Normal';font-variant-ligatures:normal;font-variant-caps:normal;font-variant-numeric:normal;font-variant-east-asian:normal;stroke-width:0.264583;fill:#ffffff"
          id="path1481" inkscape:connector-curvature="0" />
      <path
          d="m 88.686671,87.617917 q 0.232833,-0.07408 0.391582,0.08467 0.169333,0.148166 0.22225,0.402165 0.05292,0.254 0.08467,0.529165 0.03175,0.264583 0,0.423332 -0.05292,0.444499 -0.222249,0.910164 0.105833,0.03175 0.243416,-0.02117 0.148166,-0.05292 0.264582,-0.169333 0.116416,-0.127 0.148166,-0.285749 0.01058,-0.07408 0.09525,-0.433916 0.02117,-0.05292 0.03175,-0.08467 0.01058,-0.03175 0.01058,-0.0635 0.01058,-0.03175 0.03175,-0.05292 0.02117,-0.02117 0.02117,-0.03175 0.01058,-0.02117 0.04233,-0.02117 0.03175,-0.01058 0.04233,-0.01058 0.02117,-0.01058 0.07408,-0.01058 0.05292,-0.01058 0.07408,-0.01058 0.03175,0 0.105833,0.01058 0.07408,0 0.116417,0 -0.03175,0.158749 -0.07408,0.349249 -0.04233,0.179916 -0.105833,0.412748 -0.126999,0.539748 -0.603248,0.825498 -0.465665,0.285749 -0.93133,-0.04233 0.0635,0.116417 0.148166,0.1905 -0.275166,0.465665 -0.656164,0.751414 -0.380999,0.285749 -0.825498,0.285749 -0.529165,0 -0.793747,-0.402165 -0.253999,-0.412749 -0.232833,-0.99483 0.01058,-0.592665 0.253999,-1.195913 0.296333,-0.761998 0.920747,-1.21708 0.634998,-0.455082 1.12183,-0.126999 z m -0.190499,2.444742 q -0.275166,-0.370416 -0.328082,-0.825497 -0.03175,-0.264583 0.01058,-0.529165 -0.243416,0.550331 -0.296333,1.174746 -0.05292,0.624414 0.179917,0.645581 0.190499,0 0.433915,-0.465665 z m 0.222249,-0.550332 z"
          style="font-style:normal;font-variant:normal;font-weight:normal;font-stretch:normal;font-size:10.58329999999999949px;font-family:'Vintage Party';-inkscape-font-specification:'Vintage Party Normal';font-variant-ligatures:normal;font-variant-caps:normal;font-variant-numeric:normal;font-variant-east-asian:normal;stroke-width:0.264583;fill:#ffffff"
          id="path1483" inkscape:connector-curvature="0" />
      <path
          d="m 90.174122,87.988332 q -0.243416,-0.137583 -0.328082,-0.317499 -0.07408,-0.179916 -0.02117,-0.338665 0.0635,-0.15875 0.201083,-0.28575 0.126999,-0.105833 0.275165,-0.116416 0.148167,-0.02117 0.264583,0.05292 0.126999,0.07408 0.179916,0.232832 0.0635,0.148166 0,0.402166 -0.116416,0 -0.275166,-0.04233 0.08467,0.08467 0.243416,0.09525 0.15875,0.01058 0.296332,-0.02117 0.137583,-0.04233 0.317499,-0.09525 0.179917,-0.0635 0.232833,-0.08467 0.529165,-0.105833 0.910164,0.254 0.380999,0.349249 0.285749,0.941913 -0.02117,0.179916 -0.07408,0.402166 -0.05292,0.211666 -0.116416,0.476248 -0.0635,0.253999 -0.09525,0.391582 -0.179916,0.783164 0.04233,0.772581 0.169333,-0.01058 0.359832,-0.391582 0.07408,-0.169333 0.116417,-0.338666 0.03175,-0.126999 0.09525,-0.433915 0.07408,-0.317499 0.116416,-0.486832 0.01058,-0.05292 0.02117,-0.08467 0.01058,-0.03175 0.02117,-0.0635 0.01058,-0.03175 0.02117,-0.05292 0.02117,-0.02117 0.03175,-0.03175 0.01058,-0.02117 0.04233,-0.02117 0.03175,-0.01058 0.04233,-0.01058 0.02117,-0.01058 0.0635,-0.01058 0.05292,-0.01058 0.07408,-0.01058 0.03175,0 0.105833,0.01058 0.07408,0 0.127,0 -0.179916,0.761997 -0.296332,1.248829 -0.254,1.100663 -1.015997,1.396996 -0.571498,0.211666 -1.02658,-0.148167 -0.486832,-0.391582 -0.317499,-1.100663 0.306916,-1.301746 0.338665,-1.640411 0.04233,-0.285749 -0.05292,-0.359832 -0.08467,-0.08467 -0.285749,-0.04233 -0.1905,0.04233 -0.476249,0 -0.148166,0.592665 -0.243416,0.973664 -0.07408,0.338666 -0.116416,0.518582 -0.04233,0.158749 -0.201082,0.243415 -0.148167,0.07408 -0.338666,0.02117 0.158749,-0.709081 0.169333,-0.730248 0.105833,-0.455081 0.285749,-1.174746 z"
          style="font-style:normal;font-variant:normal;font-weight:normal;font-stretch:normal;font-size:10.58329999999999949px;font-family:'Vintage Party';-inkscape-font-specification:'Vintage Party Normal';font-variant-ligatures:normal;font-variant-caps:normal;font-variant-numeric:normal;font-variant-east-asian:normal;stroke-width:0.264583;fill:#ffffff"
          id="path1485" inkscape:connector-curvature="0" />
    </g>
  </g>
</svg>
