<?xml version="1.0" encoding="UTF-8" standalone="no"?>
<svg xmlns:dc="http://purl.org/dc/elements/1.1/" xmlns:cc="http://creativecommons.org/ns#" xmlns:rdf="http://www.w3.org/1999/02/22-rdf-syntax-ns#"
    xmlns="http://www.w3.org/2000/svg" xmlns:sodipodi="http://sodipodi.sourceforge.net/DTD/sodipodi-0.dtd"
    xmlns:inkscape="http://www.inkscape.org/namespaces/inkscape" inkscape:export-ydpi="2048" inkscape:export-xdpi="2048"
    inkscape:export-filename="/Users/bod/gitrepo/Fotomator/etc/assets/logo_512.png" inkscape:version="1.0beta2 (2b71d25, 2019-12-03)"
    sodipodi:docname="logo.svg" id="svg16" version="1.1" width="24" viewBox="0 0 24 24" height="24">
    <metadata id="metadata22">
        <rdf:RDF>
            <cc:Work rdf:about="">
                <dc:format>image/svg+xml</dc:format>
                <dc:type rdf:resource="http://purl.org/dc/dcmitype/StillImage" />
                <dc:title></dc:title>
            </cc:Work>
        </rdf:RDF>
    </metadata>
    <defs id="defs20" />
    <sodipodi:namedview inkscape:current-layer="svg16" inkscape:window-maximized="1" inkscape:window-y="23" inkscape:window-x="0" inkscape:cy="25.774268"
        inkscape:cx="-2.964841" inkscape:zoom="8.1200771" showgrid="false" id="namedview18" inkscape:window-height="855" inkscape:window-width="1440"
        inkscape:pageshadow="2" inkscape:pageopacity="0" guidetolerance="10" gridtolerance="10" objecttolerance="10" borderopacity="1"
        inkscape:document-rotation="0" bordercolor="#666666" pagecolor="#ffffff" />
    <g transform="matrix(0.88133479,0,0,0.940037,1.4799109,1.2609481)" id="g998" style="fill:#ff9a5a;fill-opacity:1">
        <path
            style="color:#000000;font-style:normal;font-variant:normal;font-weight:normal;font-stretch:normal;font-size:medium;line-height:normal;font-family:sans-serif;font-variant-ligatures:normal;font-variant-position:normal;font-variant-caps:normal;font-variant-numeric:normal;font-variant-alternates:normal;font-variant-east-asian:normal;font-feature-settings:normal;font-variation-settings:normal;text-indent:0;text-align:start;text-decoration:none;text-decoration-line:none;text-decoration-style:solid;text-decoration-color:#000000;letter-spacing:normal;word-spacing:normal;text-transform:none;writing-mode:lr-tb;direction:ltr;text-orientation:mixed;dominant-baseline:auto;baseline-shift:baseline;text-anchor:start;white-space:normal;shape-padding:0;shape-margin:0;inline-size:0;clip-rule:nonzero;display:inline;overflow:visible;visibility:visible;isolation:auto;mix-blend-mode:normal;color-interpolation:sRGB;color-interpolation-filters:linearRGB;solid-color:#000000;solid-opacity:1;vector-effect:none;fill:#ff9a5a;fill-opacity:1;fill-rule:nonzero;stroke:none;stroke-width:2.56655;stroke-linecap:round;stroke-linejoin:round;stroke-miterlimit:4;stroke-dasharray:none;stroke-dashoffset:0;stroke-opacity:1;paint-order:normal;color-rendering:auto;image-rendering:auto;shape-rendering:auto;text-rendering:auto;enable-background:accumulate;stop-color:#000000;stop-opacity:1"
            d="m 6.6794529,19.863925 c -0.078548,-0.639619 0.063722,-1.277836 0.2407557,-1.896465 0.2815516,-0.86567 0.8367385,-1.545686 1.5526478,-2.184536 0.2623815,-0.189691 0.2616838,-0.202732 0.5345025,-0.352606 0.068073,-0.03739 0.2792081,-0.139887 0.2093753,-0.104957 -1.7671788,0.883827 -2.3234267,1.135788 -1.6452611,0.827033 l 1.7439497,-1.204877 v 0 c -0.974862,0.453163 -2.0131045,0.85198 -2.7941502,1.538655 -0.6655779,0.66372 -1.2184522,1.406447 -1.4897651,2.259719 -0.1822249,0.657541 -0.3166215,1.309268 -0.3376422,1.986745 L 6.6794529,19.86393 Z"
            id="path1000" inkscape:connector-curvature="0" />
        <path
            style="color:#000000;font-style:normal;font-variant:normal;font-weight:normal;font-stretch:normal;font-size:medium;line-height:normal;font-family:sans-serif;font-variant-ligatures:normal;font-variant-position:normal;font-variant-caps:normal;font-variant-numeric:normal;font-variant-alternates:normal;font-variant-east-asian:normal;font-feature-settings:normal;font-variation-settings:normal;text-indent:0;text-align:start;text-decoration:none;text-decoration-line:none;text-decoration-style:solid;text-decoration-color:#000000;letter-spacing:normal;word-spacing:normal;text-transform:none;writing-mode:lr-tb;direction:ltr;text-orientation:mixed;dominant-baseline:auto;baseline-shift:baseline;text-anchor:start;white-space:normal;shape-padding:0;shape-margin:0;inline-size:0;clip-rule:nonzero;display:inline;overflow:visible;visibility:visible;isolation:auto;mix-blend-mode:normal;color-interpolation:sRGB;color-interpolation-filters:linearRGB;solid-color:#000000;solid-opacity:1;vector-effect:none;fill:#ff9a5a;fill-opacity:1;fill-rule:nonzero;stroke:none;stroke-width:2.56655;stroke-linecap:round;stroke-linejoin:round;stroke-miterlimit:4;stroke-dasharray:none;stroke-dashoffset:0;stroke-opacity:1;paint-order:normal;color-rendering:auto;image-rendering:auto;shape-rendering:auto;text-rendering:auto;enable-background:accumulate;stop-color:#000000;stop-opacity:1"
            d="m 9.3300781,13.664062 a 1.2834033,1.2834033 0 0 0 -0.5546875,0.119141 c -0.9200182,0.427669 -2.0820359,0.84194 -3.1015625,1.738281 a 1.2834033,1.2834033 0 0 0 -0.058594,0.05664 C 4.8623116,16.328945 4.167293,17.22932 3.8085935,18.357421 a 1.2834033,1.2834033 0 0 0 -0.013672,0.04492 C 3.5977831,19.1137 3.4375972,19.871911 3.4121094,20.693359 a 1.2834033,1.2834033 0 0 0 1.796875,1.214844 l 1.984375,-0.869141 A 1.2834033,1.2834033 0 0 0 7.953125,19.707031 C 7.911043,19.364355 7.995268,18.904201 8.1503906,18.353516 8.338001,17.786474 8.7080688,17.307836 9.3105469,16.765625 9.4239882,16.679665 9.4327735,16.660288 9.625,16.554688 c -0.00302,0.0017 0.013354,-0.0077 0.013672,-0.0078 0.044503,-0.0222 0.047536,-0.02183 0.09375,-0.04492 0.017155,-0.0085 0.025707,-0.01394 0.033203,-0.01758 0.011925,-0.0055 0.011743,-0.0059 0.011719,-0.0059 0.00672,-0.0034 0.00691,-0.0025 0.013672,-0.0059 0.012138,-0.0061 0.1007855,-0.05422 0.1015625,-0.05469 9.72e-5,-5.9e-5 0.3320305,-0.289063 0.3320305,-0.289063 0,0 -0.104073,-0.142224 -0.123047,-0.167968 A 1.2834033,1.2834033 0 0 0 9.3300781,13.664062 Z"
            id="path1002" inkscape:connector-curvature="0" />
    </g>
    <g transform="matrix(0.88133479,0,0,0.940037,1.4799109,1.2609481)" id="g1004" style="fill:#ff9a5a;fill-opacity:1">
        <path
            style="color:#000000;font-style:normal;font-variant:normal;font-weight:normal;font-stretch:normal;font-size:medium;line-height:normal;font-family:sans-serif;font-variant-ligatures:normal;font-variant-position:normal;font-variant-caps:normal;font-variant-numeric:normal;font-variant-alternates:normal;font-variant-east-asian:normal;font-feature-settings:normal;font-variation-settings:normal;text-indent:0;text-align:start;text-decoration:none;text-decoration-line:none;text-decoration-style:solid;text-decoration-color:#000000;letter-spacing:normal;word-spacing:normal;text-transform:none;writing-mode:lr-tb;direction:ltr;text-orientation:mixed;dominant-baseline:auto;baseline-shift:baseline;text-anchor:start;white-space:normal;shape-padding:0;shape-margin:0;inline-size:0;clip-rule:nonzero;display:inline;overflow:visible;visibility:visible;isolation:auto;mix-blend-mode:normal;color-interpolation:sRGB;color-interpolation-filters:linearRGB;solid-color:#000000;solid-opacity:1;vector-effect:none;fill:#ff9a5a;fill-opacity:1;fill-rule:nonzero;stroke:none;stroke-width:2.56655;stroke-linecap:round;stroke-linejoin:round;stroke-miterlimit:4;stroke-dasharray:none;stroke-dashoffset:0;stroke-opacity:1;paint-order:normal;color-rendering:auto;image-rendering:auto;shape-rendering:auto;text-rendering:auto;enable-background:accumulate;stop-color:#000000;stop-opacity:1"
            d="M 19.692844,19.902858 C 19.646524,19.369126 19.478225,18.840081 19.229331,18.349956 19.148711,18.191193 19.052399,18.03865 18.963934,17.882997 18.850928,17.7198 18.74525,17.552702 18.624936,17.393407 18.473813,17.193323 17.976822,16.607793 17.808655,16.406293 17.528832,16.071004 17.248327,15.73695 16.961373,15.406142 16.839567,15.267496 16.724355,15.124813 16.611979,14.98048 l -1.912357,0.982687 v 0 c 0.144583,0.128469 0.288404,0.257568 0.430216,0.388303 0.796838,0.720928 1.525977,1.507657 2.051548,2.397474 0.07942,0.153567 0.167562,0.30402 0.23825,0.460701 0.225611,0.500079 0.34149,1.033615 0.271703,1.568884 z"
            id="path1006" inkscape:connector-curvature="0" />
        <path
            style="color:#000000;font-style:normal;font-variant:normal;font-weight:normal;font-stretch:normal;font-size:medium;line-height:normal;font-family:sans-serif;font-variant-ligatures:normal;font-variant-position:normal;font-variant-caps:normal;font-variant-numeric:normal;font-variant-alternates:normal;font-variant-east-asian:normal;font-feature-settings:normal;font-variation-settings:normal;text-indent:0;text-align:start;text-decoration:none;text-decoration-line:none;text-decoration-style:solid;text-decoration-color:#000000;letter-spacing:normal;word-spacing:normal;text-transform:none;writing-mode:lr-tb;direction:ltr;text-orientation:mixed;dominant-baseline:auto;baseline-shift:baseline;text-anchor:start;white-space:normal;shape-padding:0;shape-margin:0;inline-size:0;clip-rule:nonzero;display:inline;overflow:visible;visibility:visible;isolation:auto;mix-blend-mode:normal;color-interpolation:sRGB;color-interpolation-filters:linearRGB;solid-color:#000000;solid-opacity:1;vector-effect:none;fill:#ff9a5a;fill-opacity:1;fill-rule:nonzero;stroke:none;stroke-width:2.56655;stroke-linecap:round;stroke-linejoin:round;stroke-miterlimit:4;stroke-dasharray:none;stroke-dashoffset:0;stroke-opacity:1;paint-order:normal;color-rendering:auto;image-rendering:auto;shape-rendering:auto;text-rendering:auto;enable-background:accumulate;stop-color:#000000;stop-opacity:1"
            d="m 16.634766,13.697266 a 1.2834033,1.2834033 0 0 0 -0.609375,0.142578 l -1.91211,0.982422 a 1.2834033,1.2834033 0 0 0 -0.265625,2.099609 c 0.141352,0.125598 0.278661,0.250022 0.41211,0.373047 a 1.2834033,1.2834033 0 0 0 0.0098,0.0078 c 0.739742,0.669271 1.373062,1.369745 1.802735,2.095704 0.0784,0.14888 0.149813,0.277956 0.177734,0.339843 0.152644,0.338343 0.200078,0.628719 0.167969,0.875 a 1.2834033,1.2834033 0 0 0 1.787109,1.341797 l 2.001953,-0.876953 a 1.2834033,1.2834033 0 0 0 0.763672,-1.287109 c -0.06315,-0.727708 -0.285706,-1.407189 -0.597656,-2.021485 -0.117184,-0.230766 -0.22424,-0.400557 -0.292969,-0.521484 a 1.2834033,1.2834033 0 0 0 -0.06055,-0.0957 C 19.926793,17.018354 19.811097,16.834449 19.64847,16.619132 19.40752,16.300119 18.947823,15.769486 18.793001,15.583975 18.511527,15.246709 18.227586,14.90558 17.931673,14.564444 a 1.2834033,1.2834033 0 0 0 -0.0059,-0.0059 C 17.827284,14.446479 17.728034,14.323741 17.625,14.191406 a 1.2834033,1.2834033 0 0 0 -0.990234,-0.49414 z"
            id="path1008" inkscape:connector-curvature="0" />
    </g>
    <g transform="matrix(0.88133479,0,0,0.940037,1.4799109,1.2609481)" id="g1010" style="fill:#ff9a5a;fill-opacity:1">
        <path
            style="color:#000000;font-style:normal;font-variant:normal;font-weight:normal;font-stretch:normal;font-size:medium;line-height:normal;font-family:sans-serif;font-variant-ligatures:normal;font-variant-position:normal;font-variant-caps:normal;font-variant-numeric:normal;font-variant-alternates:normal;font-variant-east-asian:normal;font-feature-settings:normal;font-variation-settings:normal;text-indent:0;text-align:start;text-decoration:none;text-decoration-line:none;text-decoration-style:solid;text-decoration-color:#000000;letter-spacing:normal;word-spacing:normal;text-transform:none;writing-mode:lr-tb;direction:ltr;text-orientation:mixed;dominant-baseline:auto;baseline-shift:baseline;text-anchor:start;white-space:normal;shape-padding:0;shape-margin:0;inline-size:0;clip-rule:nonzero;display:inline;overflow:visible;visibility:visible;isolation:auto;mix-blend-mode:normal;color-interpolation:sRGB;color-interpolation-filters:linearRGB;solid-color:#000000;solid-opacity:1;vector-effect:none;fill:#ff9a5a;fill-opacity:1;fill-rule:nonzero;stroke:none;stroke-width:2.28202;stroke-linecap:round;stroke-linejoin:round;stroke-miterlimit:4;stroke-dasharray:none;stroke-dashoffset:0;stroke-opacity:1;paint-order:normal;color-rendering:auto;image-rendering:auto;shape-rendering:auto;text-rendering:auto;enable-background:accumulate;stop-color:#000000;stop-opacity:1"
            d="m 8.2118444,9.5035829 c -0.042961,0.01134 -0.084589,0.029278 -0.1288728,0.034017 C 7.9169838,9.5553289 7.664377,9.5234144 7.5158219,9.4937938 6.9547826,9.3819286 6.425433,9.1666635 5.8909765,8.9488877 5.2224303,8.6566948 4.5741814,8.3092581 4.0028674,7.8264005 3.8131606,7.6746841 3.6581236,7.478059 3.4599939,7.3383797 L 2.2983607,8.7582105 v 0 c 0.221803,0.059634 0.3714165,0.2892537 0.5687504,0.4011401 0.2468148,0.177922 0.4931746,0.3610819 0.7594534,0.5034159 0.4039009,0.2158971 0.8366776,0.3573235 1.2492709,0.5492035 0.3041156,0.122888 0.8008511,0.324203 1.1051348,0.444781 0.3824364,0.151548 0.770202,0.324512 1.1780418,0.349192 z"
            id="path1012" inkscape:connector-curvature="0" />
        <path
            style="color:#000000;font-style:normal;font-variant:normal;font-weight:normal;font-stretch:normal;font-size:medium;line-height:normal;font-family:sans-serif;font-variant-ligatures:normal;font-variant-position:normal;font-variant-caps:normal;font-variant-numeric:normal;font-variant-alternates:normal;font-variant-east-asian:normal;font-feature-settings:normal;font-variation-settings:normal;text-indent:0;text-align:start;text-decoration:none;text-decoration-line:none;text-decoration-style:solid;text-decoration-color:#000000;letter-spacing:normal;word-spacing:normal;text-transform:none;writing-mode:lr-tb;direction:ltr;text-orientation:mixed;dominant-baseline:auto;baseline-shift:baseline;text-anchor:start;white-space:normal;shape-padding:0;shape-margin:0;inline-size:0;clip-rule:nonzero;display:inline;overflow:visible;visibility:visible;isolation:auto;mix-blend-mode:normal;color-interpolation:sRGB;color-interpolation-filters:linearRGB;solid-color:#000000;solid-opacity:1;vector-effect:none;fill:#ff9a5a;fill-opacity:1;fill-rule:nonzero;stroke:none;stroke-width:2.28202;stroke-linecap:round;stroke-linejoin:round;stroke-miterlimit:4;stroke-dasharray:none;stroke-dashoffset:0;stroke-opacity:1;paint-order:normal;color-rendering:auto;image-rendering:auto;shape-rendering:auto;text-rendering:auto;enable-background:accumulate;stop-color:#000000;stop-opacity:1"
            d="M 3.4414062,6.1972656 A 1.1411241,1.1411241 0 0 0 2.5761719,6.6152344 L 1.4160156,8.0351562 a 1.1411241,1.1411241 0 0 0 0.4375,1.7714844 c 0.058986,0.053598 0.176905,0.1901965 0.4511719,0.3457034 0.2197015,0.159704 0.4594121,0.344502 0.7832031,0.517578 0.5200431,0.277978 0.976294,0.422541 1.3066406,0.576172 a 1.1411241,1.1411241 0 0 0 0.054688,0.02344 c 0.3029343,0.122411 0.7980568,0.323126 1.1113281,0.447266 0.351585,0.139322 0.8441474,0.386273 1.5292969,0.427734 A 1.1411241,1.1411241 0 0 0 8.09375,11.660156 L 9.1464844,10.158203 A 1.1411241,1.1411241 0 0 0 7.9296875,8.3984375 C 7.9372726,8.3902988 7.7893711,8.3851869 7.7382812,8.375 7.3215456,8.2919074 6.8635014,8.1113055 6.3359375,7.8964844 5.7291578,7.6303747 5.1892403,7.3345646 4.7402344,6.9550781 A 1.1411241,1.1411241 0 0 0 4.7148438,6.9355469 C 4.6638647,6.8947768 4.4983604,6.6749728 4.1171875,6.40625 A 1.1411241,1.1411241 0 0 0 3.4414062,6.1972656 Z"
            id="path1014" inkscape:connector-curvature="0" />
    </g>
    <g transform="matrix(0.88133479,0,0,0.940037,1.4799109,1.2609481)" id="g1016" style="fill:#ff9a5a;fill-opacity:1">
        <path
            style="color:#000000;font-style:normal;font-variant:normal;font-weight:normal;font-stretch:normal;font-size:medium;line-height:normal;font-family:sans-serif;font-variant-ligatures:normal;font-variant-position:normal;font-variant-caps:normal;font-variant-numeric:normal;font-variant-alternates:normal;font-variant-east-asian:normal;font-feature-settings:normal;font-variation-settings:normal;text-indent:0;text-align:start;text-decoration:none;text-decoration-line:none;text-decoration-style:solid;text-decoration-color:#000000;letter-spacing:normal;word-spacing:normal;text-transform:none;writing-mode:lr-tb;direction:ltr;text-orientation:mixed;dominant-baseline:auto;baseline-shift:baseline;text-anchor:start;white-space:normal;shape-padding:0;shape-margin:0;inline-size:0;clip-rule:nonzero;display:inline;overflow:visible;visibility:visible;isolation:auto;mix-blend-mode:normal;color-interpolation:sRGB;color-interpolation-filters:linearRGB;solid-color:#000000;solid-opacity:1;vector-effect:none;fill:#ff9a5a;fill-opacity:1;fill-rule:nonzero;stroke:none;stroke-width:2.48824;stroke-linecap:round;stroke-linejoin:round;stroke-miterlimit:4;stroke-dasharray:none;stroke-dashoffset:0;stroke-opacity:1;paint-order:normal;color-rendering:auto;image-rendering:auto;shape-rendering:auto;text-rendering:auto;enable-background:accumulate;stop-color:#000000;stop-opacity:1"
            d="M 17.282592,10.108132 C 18.43678,9.1127797 19.697924,8.2346467 20.948137,7.347743 21.31524,7.0801513 21.696332,6.8292321 22.06563,6.5643098 22.210344,6.4604971 22.334396,6.3622175 22.444016,6.2267601 22.509196,6.10193 22.607651,5.9812319 22.606347,5.8349139 l -2.083728,0.137534 v 0 c -0.02819,0.077609 -0.07603,0.1868067 -0.141352,0.258653 -0.365907,0.4057208 -0.828523,0.7247195 -1.241735,1.0845547 -0.675954,0.5334195 -1.357359,1.0597806 -2.064288,1.5579928 -1.536743,1.083027 -0.174653,0.106138 -1.527296,1.0103672 -0.119373,0.079802 -0.2307,0.1693874 -0.34605,0.2540824 l 2.080692,-0.02997 z"
            id="path1018" inkscape:connector-curvature="0" />
        <path
            style="color:#000000;font-style:normal;font-variant:normal;font-weight:normal;font-stretch:normal;font-size:medium;line-height:normal;font-family:sans-serif;font-variant-ligatures:normal;font-variant-position:normal;font-variant-caps:normal;font-variant-numeric:normal;font-variant-alternates:normal;font-variant-east-asian:normal;font-feature-settings:normal;font-variation-settings:normal;text-indent:0;text-align:start;text-decoration:none;text-decoration-line:none;text-decoration-style:solid;text-decoration-color:#000000;letter-spacing:normal;word-spacing:normal;text-transform:none;writing-mode:lr-tb;direction:ltr;text-orientation:mixed;dominant-baseline:auto;baseline-shift:baseline;text-anchor:start;white-space:normal;shape-padding:0;shape-margin:0;inline-size:0;clip-rule:nonzero;display:inline;overflow:visible;visibility:visible;isolation:auto;mix-blend-mode:normal;color-interpolation:sRGB;color-interpolation-filters:linearRGB;solid-color:#000000;solid-opacity:1;vector-effect:none;fill:#ff9a5a;fill-opacity:1;fill-rule:nonzero;stroke:none;stroke-width:2.48824;stroke-linecap:round;stroke-linejoin:round;stroke-miterlimit:4;stroke-dasharray:none;stroke-dashoffset:0;stroke-opacity:1;paint-order:normal;color-rendering:auto;image-rendering:auto;shape-rendering:auto;text-rendering:auto;enable-background:accumulate;stop-color:#000000;stop-opacity:1"
            d="m 22.580078,4.5917969 a 1.2442444,1.2442444 0 0 0 -0.05664,0.00195 L 20.441406,4.7304688 A 1.2442444,1.2442444 0 0 0 19.392578,5.453125 c -0.236146,0.2453353 -0.605208,0.5203642 -1.054687,0.9101562 -0.0067,0.00581 -0.0089,0.00781 -0.01563,0.013672 -0.653084,0.5148183 -1.301602,1.0144214 -1.962891,1.4804688 -0.765873,0.5397529 -1.01137,0.5004726 -0.363281,0.3691406 0.162022,-0.032833 -0.175767,0.042677 -0.285156,0.091797 -0.10939,0.04912 -0.152803,0.077595 -0.214844,0.1152344 -0.124084,0.075278 -0.294668,0.1860518 -0.638672,0.4160156 -0.179903,0.1202666 -0.306767,0.2221502 -0.392578,0.2851562 a 1.2442444,1.2442444 0 0 0 0.755859,2.2480462 l 2.080078,-0.03125 a 1.2442444,1.2442444 0 0 0 0.794922,-0.300781 c 1.088818,-0.938978 2.316105,-1.7963762 3.572266,-2.6874996 a 1.2442444,1.2442444 0 0 0 0.01367,-0.00977 c 0.335067,-0.2442398 0.713011,-0.4930052 1.109375,-0.7773437 0.173275,-0.1243018 0.405902,-0.3029073 0.61914,-0.5664063 a 1.2442444,1.2442444 0 0 0 0.136719,-0.2070312 c -0.02044,0.039152 0.309066,-0.2680686 0.302734,-0.9785156 A 1.2442444,1.2442444 0 0 0 22.580078,4.5917969 Z"
            id="path1020" inkscape:connector-curvature="0" />
    </g>
    <g transform="matrix(0.88133479,0,0,0.940037,1.4799109,1.2609481)" id="g1022" style="fill:#ff9a5a;fill-opacity:1">
        <path
            style="color:#000000;font-style:normal;font-variant:normal;font-weight:normal;font-stretch:normal;font-size:medium;line-height:normal;font-family:sans-serif;font-variant-ligatures:normal;font-variant-position:normal;font-variant-caps:normal;font-variant-numeric:normal;font-variant-alternates:normal;font-variant-east-asian:normal;font-feature-settings:normal;font-variation-settings:normal;text-indent:0;text-align:start;text-decoration:none;text-decoration-line:none;text-decoration-style:solid;text-decoration-color:#000000;letter-spacing:normal;word-spacing:normal;text-transform:none;writing-mode:lr-tb;direction:ltr;text-orientation:mixed;dominant-baseline:auto;baseline-shift:baseline;text-anchor:start;white-space:normal;shape-padding:0;shape-margin:0;inline-size:0;clip-rule:nonzero;display:inline;overflow:visible;visibility:visible;isolation:auto;mix-blend-mode:normal;color-interpolation:sRGB;color-interpolation-filters:linearRGB;solid-color:#000000;solid-opacity:1;vector-effect:none;fill:#ff9a5a;fill-opacity:1;fill-rule:nonzero;stroke:none;stroke-width:2.2;stroke-linecap:round;stroke-linejoin:round;stroke-miterlimit:4;stroke-dasharray:none;stroke-dashoffset:0;stroke-opacity:1;paint-order:normal;color-rendering:auto;image-rendering:auto;shape-rendering:auto;text-rendering:auto;enable-background:accumulate;stop-color:#000000;stop-opacity:1"
            d="m 13.250019,6.4257743 c -0.05838,-0.5665338 -0.05501,-1.1418514 -0.04176,-1.711221 0.006,-0.481992 0.0671,-0.9604069 0.102801,-1.4403077 0.0047,-0.2903709 0.0208,-0.5873093 0.116808,-0.8630526 0.06574,-0.1887943 0.178567,-0.3539867 0.279106,-0.5248997 L 11.994675,2.649875 v 0 c -0.09951,0.1807551 -0.197269,0.3631894 -0.256243,0.5621521 -0.07356,0.2968778 -0.08732,0.6027372 -0.103487,0.9074742 -0.0035,0.4672834 0.0056,0.9348495 -0.02087,1.4018076 -0.01872,0.5896282 -0.0013,1.1820792 -0.06103,1.7691183 l 1.696977,-0.8646529 z"
            id="path1024" inkscape:connector-curvature="0" />
        <path
            style="color:#000000;font-style:normal;font-variant:normal;font-weight:normal;font-stretch:normal;font-size:medium;line-height:normal;font-family:sans-serif;font-variant-ligatures:normal;font-variant-position:normal;font-variant-caps:normal;font-variant-numeric:normal;font-variant-alternates:normal;font-variant-east-asian:normal;font-feature-settings:normal;font-variation-settings:normal;text-indent:0;text-align:start;text-decoration:none;text-decoration-line:none;text-decoration-style:solid;text-decoration-color:#000000;letter-spacing:normal;word-spacing:normal;text-transform:none;writing-mode:lr-tb;direction:ltr;text-orientation:mixed;dominant-baseline:auto;baseline-shift:baseline;text-anchor:start;white-space:normal;shape-padding:0;shape-margin:0;inline-size:0;clip-rule:nonzero;display:inline;overflow:visible;visibility:visible;isolation:auto;mix-blend-mode:normal;color-interpolation:sRGB;color-interpolation-filters:linearRGB;solid-color:#000000;solid-opacity:1;vector-effect:none;fill:#ff9a5a;fill-opacity:1;fill-rule:nonzero;stroke:none;stroke-width:2.2;stroke-linecap:round;stroke-linejoin:round;stroke-miterlimit:4;stroke-dasharray:none;stroke-dashoffset:0;stroke-opacity:1;paint-order:normal;color-rendering:auto;image-rendering:auto;shape-rendering:auto;text-rendering:auto;enable-background:accumulate;stop-color:#000000;stop-opacity:1"
            d="m 13.726562,0.78710938 a 1.10011,1.10011 0 0 0 -0.466796,0.09375 L 11.546875,1.6445312 A 1.10011,1.10011 0 0 0 11.03125,2.1191406 c -0.103527,0.1880522 -0.246621,0.440383 -0.347656,0.78125 a 1.10011,1.10011 0 0 0 -0.01367,0.046875 c -0.108277,0.4369909 -0.116959,0.8144549 -0.132813,1.1132813 a 1.10011,1.10011 0 0 0 -0.002,0.050781 c -0.0036,0.487059 0.0038,0.9363447 -0.01953,1.3476563 a 1.10011,1.10011 0 0 0 -0.002,0.027344 c -0.02015,0.6346197 -0.0047,1.2018965 -0.05469,1.6933594 a 1.10011,1.10011 0 0 0 1.59375,1.0917969 L 13.75,7.40625 A 1.10011,1.10011 0 0 0 14.34375,6.3125 C 14.2936,5.8257935 14.29564,5.296711 14.30859,4.7402344 a 1.10011,1.10011 0 0 0 0,-0.011719 c 0.005,-0.3981111 0.06103,-0.8544865 0.09961,-1.3730468 a 1.10011,1.10011 0 0 0 0.002,-0.0625 c 0.0042,-0.2618599 0.02871,-0.4393157 0.05664,-0.5195313 0.0027,-0.00786 0.06166,-0.1161577 0.1875,-0.3300781 A 1.10011,1.10011 0 0 0 13.726562,0.78710938 Z"
            id="path1026" inkscape:connector-curvature="0" />
    </g>
</svg>
